<svg xmlns="http://www.w3.org/2000/svg" xmlns:xlink="http://www.w3.org/1999/xlink" version="1.1" id="Layer_1" x="0px" y="0px" style="enable-background:new 0 0 376 114.1;" xml:space="preserve" viewBox="1.5 14.6 367.5 79.9">
<style type="text/css">
	.st0{fill:#333F48;}
	.st1{fill:#BF5700;}
</style>
<g>
	<path class="st0" d="M57.2,45l-0.6,3.2c-1.2,0.6-3.6,1.5-5.4,1.7c-4.2,0-8.1-2.8-8.1-8s3.5-7.8,8.5-8.4c2.3,0,4.4,1.1,5.3,1.7v3   h-1.2L55,36.2c-0.6-0.6-1.9-1.5-3.7-1.5c-3.3,0-5.6,2.3-5.6,6.7c0,3.6,2.2,7.3,6.1,7.3c1.3,0,2.3-0.7,2.9-1.3l1.2-2.5H57.2z"/>
	<path class="st0" d="M62.1,48.6l1.2,0.2l-0.1,0.8l-2.1-0.1l-2.6,0.1l-0.1-0.8l1.6-0.2V35.1l-1.6,0l-0.1-0.8l2.7-0.7l1.1-0.1v7.2   l3.3-2.1c2.9,0,3.3,1.1,3.3,3.9v5.9l1.7,0.2l-0.1,0.8l-2.6-0.1l-2.1,0.1l-0.1-0.8l1.1-0.2v-6.4c0-1.2-0.5-1.7-1.4-1.7   c-0.7,0-1.5,0.5-2.4,1l-0.7,0.4V48.6z"/>
	<path class="st0" d="M75.8,38.7c2.8,0,3.5,0.7,3.5,3.6v4.4c0,1,0.2,1.3,0.4,1.7h1.1l0.1,0.8l-2.9,0.6l-0.7-1.7l-2.7,1.9   c-1.9,0-3.3-1.1-3.3-2.9c0-0.8,0.3-1.4,0.8-2.1l5-1.7v-1.1c0-1.3-0.1-2.1-1.3-2.1c-0.6,0-1.3,0.2-1.8,0.4l-0.4,1.8h-1.9v-1.7   L75.8,38.7z M77.2,44.2L74,45.5c-0.3,0.3-0.4,0.8-0.4,1.3c0,1.1,0.6,1.5,1.3,1.5c0.6,0,1.2-0.4,1.5-0.6l0.9-0.6V44.2z"/>
	<path class="st0" d="M84.7,49.5l-2.6,0.1L82,48.8l1.6-0.2v-8.2L82,40.5l-0.1-0.8l2.7-0.7l1-0.1l0.1,1.9l3.3-2.2   c2.9,0,3.3,1,3.3,3.6v6.2l1.7,0.2l-0.1,0.8l-2.6-0.1l-2.1,0.1l-0.1-0.8l1.1-0.2v-6.4c0-1.2-0.5-1.7-1.5-1.7c-0.8,0-1.6,0.5-2.3,1   l-0.7,0.4v6.6l1.2,0.2l-0.1,0.8L84.7,49.5z"/>
	<path class="st0" d="M104.2,46.6c0,0.9,0.2,1.3,0.4,1.6h1.3l0.1,0.8l-3,0.6l-0.7-1.7l-2.9,1.9c-2.8,0-4.7-2.1-4.7-5.2   c0-3.6,2.2-5.5,5.5-6c0.4,0,1.4,0.4,1.9,0.6v-4.2l-1.6,0l-0.1-0.8l2.7-0.7l1.1-0.1V46.6z M101.5,47.2l0.7-0.5v-5.9   c-0.5-0.6-1.3-0.9-2.2-0.9c-1.8,0-2.9,1.6-2.9,4.3c0,2.5,1,4,2.3,4C99.9,48.1,100.7,47.8,101.5,47.2z"/>
	<path class="st0" d="M110.5,41.9l2.5-3.1h1.8V41h-1.7c-0.5,0.1-1.5,0.8-2.1,1.6l-0.4,0.5v5.3l2.3,0.2l-0.1,0.8l-3.2-0.1l-2.5,0.1   l-0.1-0.8l1.6-0.2v-8.2l-1.6,0.1l-0.1-0.8l2.7-0.7l0.9-0.1L110.5,41.9z"/>
	<path class="st0" d="M120,38.7c2.8,0,3.5,0.7,3.5,3.6v4.4c0,1,0.2,1.3,0.4,1.7h1.1l0.1,0.8l-2.9,0.6l-0.7-1.7l-2.7,1.9   c-1.9,0-3.3-1.1-3.3-2.9c0-0.8,0.3-1.4,0.8-2.1l5-1.7v-1.1c0-1.3-0.1-2.1-1.3-2.1c-0.6,0-1.3,0.2-1.8,0.4l-0.4,1.8H116v-1.7   L120,38.7z M121.4,44.2l-3.2,1.3c-0.3,0.3-0.4,0.8-0.4,1.3c0,1.1,0.6,1.5,1.3,1.5c0.6,0,1.2-0.4,1.5-0.6l0.9-0.6V44.2z"/>
	<path class="st0" d="M134.4,33.9l4.5-0.1c4.6,0,7.4,2.6,7.4,7.4c0,4.8-2.5,7.7-7.6,8.3l-4.2-0.1l-3,0.1l-0.1-0.8l2-0.3V34.9l-2-0.3   l0.1-0.8L134.4,33.9z M135.6,34.9v13.4l2.8,0.2c3.1,0,5.2-2.8,5.2-7c0-3.8-1.9-6.7-5.8-6.7L135.6,34.9z"/>
	<path class="st0" d="M150.1,43.8c0,2.5,1.4,4.4,3.7,4.4c0.9,0,2-0.4,2.8-0.9l0.4,0.8c-1.1,0.7-2.5,1.4-3.9,1.8   c-2.7,0-5.1-1.9-5.1-5.4c0-3.3,2-5.1,5.1-5.7c3,0,4,1.9,4,4.2v0.9H150.1z M154.6,42.7c0-1.7-0.3-2.9-2.1-2.9   c-1.4,0-2.2,1.3-2.4,3.1L154.6,42.7z"/>
	<path class="st0" d="M161.6,49.4v4.3l2.3,0.2l-0.1,0.8l-3.2-0.1l-2.6,0.1l-0.1-0.8l1.6-0.2V40.4l-1.6,0.1l-0.1-0.8l2.7-0.7l1-0.1   l0.1,1.9l2.9-2.1c2.9,0,4.6,2,4.6,5.2c0,3.8-2.3,5.5-5.6,6C162.7,49.9,162.1,49.7,161.6,49.4z M164.4,40.4c-0.6,0-1.3,0.4-2.1,1   l-0.7,0.5v5.6c0.5,0.8,1.4,1.2,2.4,1.2c1.6,0,2.7-1.6,2.7-4.2C166.7,42,165.7,40.4,164.4,40.4z"/>
	<path class="st0" d="M174.8,38.7c2.8,0,3.5,0.7,3.5,3.6v4.4c0,1,0.2,1.3,0.4,1.7h1.1l0.1,0.8l-2.9,0.6l-0.7-1.7l-2.7,1.9   c-1.9,0-3.3-1.1-3.3-2.9c0-0.8,0.3-1.4,0.8-2.1l5-1.7v-1.1c0-1.3-0.1-2.1-1.3-2.1c-0.6,0-1.3,0.2-1.8,0.4l-0.4,1.8h-1.9v-1.7   L174.8,38.7z M176.2,44.2l-3.2,1.3c-0.3,0.3-0.4,0.8-0.4,1.3c0,1.1,0.6,1.5,1.3,1.5c0.6,0,1.2-0.4,1.5-0.6l0.9-0.6V44.2z"/>
	<path class="st0" d="M184.6,41.9l2.5-3.1h1.8V41h-1.7c-0.5,0.1-1.5,0.8-2.1,1.6l-0.4,0.5v5.3l2.3,0.2l-0.1,0.8l-3.2-0.1l-2.5,0.1   l-0.1-0.8l1.6-0.2v-8.2l-1.6,0.1l-0.1-0.8l2.7-0.7l0.9-0.1L184.6,41.9z"/>
	<path class="st0" d="M190.1,40.3v-0.4l0.8-0.8h1.5v-1.5l1.5-1.5h0.6v3.1h3.4v1h-3.4v6.6c0,0.6,0.2,1.3,1.2,1.3   c0.6,0,1.1-0.2,1.8-0.5l0.4,0.8l-2.6,1.5c-2.5,0-2.8-0.9-2.8-2.9v-6.7H190.1z"/>
	<path class="st0" d="M214.3,49.5l-2.1,0.1l-0.1-0.8l1.1-0.2v-6.4c0-1.2-0.5-1.7-1.3-1.7c-0.7,0-1.5,0.4-2.3,1l-0.7,0.5v6.6l1,0.2   l-0.1,0.8l-1.9-0.1l-2,0.1l-0.1-0.8l1-0.2v-6.4c0-1.2-0.5-1.7-1.3-1.7c-0.7,0-1.5,0.4-2.3,1l-0.7,0.5v6.6l1.1,0.2l-0.1,0.8l-2-0.1   l-2.6,0.1l-0.1-0.8l1.6-0.2v-8.2l-1.6,0.1l-0.1-0.8l2.7-0.7l1-0.1l0.1,1.9l3.1-2.1c2.2,0,3,0.6,3.2,2.2l3.2-2.2   c2.9,0,3.3,1.1,3.3,3.9v5.9l1.7,0.2l-0.1,0.8L214.3,49.5z"/>
	<path class="st0" d="M219.9,43.8c0,2.5,1.4,4.4,3.7,4.4c0.9,0,2-0.4,2.8-0.9l0.4,0.8c-1.1,0.7-2.5,1.4-3.9,1.8   c-2.7,0-5.1-1.9-5.1-5.4c0-3.3,2-5.1,5.1-5.7c3,0,4,1.9,4,4.2v0.9H219.9z M224.4,42.7c0-1.7-0.3-2.9-2.1-2.9   c-1.4,0-2.2,1.3-2.4,3.1L224.4,42.7z"/>
	<path class="st0" d="M230.6,49.5l-2.6,0.1l-0.1-0.8l1.6-0.2v-8.2l-1.6,0.1l-0.1-0.8l2.7-0.7l1-0.1l0.1,1.9l3.3-2.2   c2.9,0,3.3,1,3.3,3.6v6.2l1.7,0.2l-0.1,0.8l-2.6-0.1l-2.1,0.1l-0.1-0.8l1.1-0.2v-6.4c0-1.2-0.5-1.7-1.5-1.7c-0.8,0-1.6,0.5-2.3,1   l-0.7,0.4v6.6l1.2,0.2l-0.1,0.8L230.6,49.5z"/>
	<path class="st0" d="M239.9,40.3v-0.4l0.8-0.8h1.5v-1.5l1.5-1.5h0.6v3.1h3.4v1h-3.4v6.6c0,0.6,0.2,1.3,1.2,1.3   c0.6,0,1.1-0.2,1.8-0.5l0.4,0.8l-2.6,1.5c-2.5,0-2.8-0.9-2.8-2.9v-6.7H239.9z"/>
	<path class="st0" d="M264.3,44.1c0,3.3-2,5.3-5.5,5.8c-3,0-5-2.3-5-5.3c0-3.4,2-5.3,5.5-5.8C262.3,38.7,264.3,41,264.3,44.1z    M259.4,48.8c1.8,0,2.7-1.8,2.7-4.2c0-2.8-1.4-4.7-3.3-4.7c-1.8,0-2.7,1.8-2.7,4.3C256.1,46.6,257.4,48.8,259.4,48.8z"/>
	<path class="st0" d="M269.4,39.3h2.8v1.1h-2.8v8.3l2.6,0.2l-0.1,0.8l-3.5-0.1l-2.6,0.1l-0.1-0.8l1.6-0.2v-8.3h-2v-0.4l0.7-0.8h1.3   v-0.2c0-1.3,0.4-2.2,1.2-3.1l1.9-2.1h2.8v1.8h-2.9l-0.4,0.6c-0.3,0.4-0.5,1.1-0.5,2.5V39.3z"/>
	<path class="st0" d="M290.7,33.9l0.2,4h-0.8l-1.3-2.9l-5.9-0.1v5.9l3.1-0.1l0.9-2.3h0.8l-0.2,2.8l0.2,3H287l-0.9-2.3l-3.1-0.1v6.7   l6.1-0.1l1.5-3h0.8l-0.8,4.1l-8.9-0.1l-3.1,0.1l-0.1-0.8l2-0.3V34.9l-2-0.3l0.1-0.8l3.1,0.1L290.7,33.9z"/>
	<path class="st0" d="M295.3,49.5l-2.6,0.1l-0.1-0.8l1.6-0.2V35.1l-1.6,0l-0.1-0.8l2.7-0.7l1.1-0.1v15l1.7,0.2l-0.1,0.8L295.3,49.5z   "/>
	<path class="st0" d="M301.1,43.8c0,2.5,1.4,4.4,3.7,4.4c0.9,0,2-0.4,2.8-0.9l0.4,0.8c-1.1,0.7-2.5,1.4-3.9,1.8   c-2.7,0-5.1-1.9-5.1-5.4c0-3.3,2-5.1,5.1-5.7c3,0,4,1.9,4,4.2v0.9H301.1z M305.6,42.7c0-1.7-0.3-2.9-2.1-2.9   c-1.4,0-2.2,1.3-2.4,3.1L305.6,42.7z"/>
	<path class="st0" d="M315.6,40.2c-0.4-0.3-0.7-0.4-1.3-0.4c-1.5,0-2.7,1.7-2.7,4.1c0,2.4,1.3,4.2,3.5,4.2c0.9,0,1.7-0.4,2.5-0.9   l0.4,0.8c-1,0.7-2.2,1.3-3.6,1.8c-2.9,0-5-1.9-5-5.3c0-3.5,2.6-5.2,5.3-5.9c1,0,2.4,0.5,3.1,1.1v2.2h-1.7L315.6,40.2z"/>
	<path class="st0" d="M318.9,40.3v-0.4l0.8-0.8h1.5v-1.5l1.5-1.5h0.6v3.1h3.4v1h-3.4v6.6c0,0.6,0.2,1.3,1.2,1.3   c0.6,0,1.1-0.2,1.8-0.5l0.4,0.8l-2.6,1.5c-2.5,0-2.8-0.9-2.8-2.9v-6.7H318.9z"/>
	<path class="st0" d="M331.3,41.9l2.5-3.1h1.8V41H334c-0.5,0.1-1.5,0.8-2.1,1.6l-0.4,0.5v5.3l2.3,0.2l-0.1,0.8l-3.2-0.1l-2.5,0.1   l-0.1-0.8l1.6-0.2v-8.2l-1.6,0.1l-0.1-0.8l2.7-0.7l0.9-0.1L331.3,41.9z"/>
	<path class="st0" d="M339.6,49.5l-2.6,0.1l-0.1-0.8l1.6-0.2v-8.2l-1.6,0.1l-0.1-0.8l2.7-0.7l1.1-0.1v9.6l1.7,0.2l-0.1,0.8   L339.6,49.5z M338.5,34.1l1.6-0.1l0.6,0.1l0.1,1.3l-0.2,1.1l-1.6,0.1l-0.6-0.1l-0.1-1.3L338.5,34.1z"/>
	<path class="st0" d="M349.4,40.2c-0.4-0.3-0.7-0.4-1.3-0.4c-1.5,0-2.7,1.7-2.7,4.1c0,2.4,1.3,4.2,3.5,4.2c0.9,0,1.7-0.4,2.5-0.9   l0.4,0.8c-1,0.7-2.2,1.3-3.6,1.8c-2.9,0-5-1.9-5-5.3c0-3.5,2.6-5.2,5.3-5.9c1,0,2.4,0.5,3.1,1.1v2.2h-1.7L349.4,40.2z"/>
	<path class="st0" d="M357.5,38.7c2.8,0,3.5,0.7,3.5,3.6v4.4c0,1,0.2,1.3,0.4,1.7h1.1l0.1,0.8l-2.9,0.6l-0.7-1.7l-2.7,1.9   c-1.9,0-3.3-1.1-3.3-2.9c0-0.8,0.3-1.4,0.8-2.1l5-1.7v-1.1c0-1.3-0.1-2.1-1.3-2.1c-0.6,0-1.3,0.2-1.8,0.4l-0.4,1.8h-1.9v-1.7   L357.5,38.7z M358.9,44.2l-3.2,1.3c-0.3,0.3-0.4,0.8-0.4,1.3c0,1.1,0.6,1.5,1.3,1.5c0.6,0,1.2-0.4,1.5-0.6l0.9-0.6V44.2z"/>
	<path class="st0" d="M366.3,49.5l-2.6,0.1l-0.1-0.8l1.6-0.2V35.1l-1.6,0l-0.1-0.8l2.7-0.7l1.1-0.1v15l1.7,0.2l-0.1,0.8L366.3,49.5z   "/>
	<path class="st0" d="M47.3,62.2c2.8,0,3.5,0.7,3.5,3.6v4.4c0,1,0.2,1.3,0.4,1.7h1.1l0.1,0.8l-2.9,0.6l-0.7-1.7l-2.7,1.9   c-1.9,0-3.3-1.1-3.3-2.9c0-0.8,0.3-1.4,0.8-2.1l5-1.7v-1.1c0-1.3-0.1-2.1-1.3-2.1c-0.6,0-1.3,0.2-1.8,0.4l-0.4,1.8h-1.9V64   L47.3,62.2z M48.7,67.7L45.5,69c-0.3,0.3-0.4,0.8-0.4,1.3c0,1.1,0.6,1.5,1.3,1.5c0.6,0,1.2-0.4,1.5-0.6l0.9-0.6V67.7z"/>
	<path class="st0" d="M56.3,73L53.7,73l-0.1-0.8l1.6-0.2v-8.2L53.6,64l-0.1-0.8l2.7-0.7l1-0.1l0.1,1.9l3.3-2.2c2.9,0,3.3,1,3.3,3.6   V72l1.7,0.2L65.5,73L62.9,73L60.8,73l-0.1-0.8l1.1-0.2v-6.4c0-1.2-0.5-1.7-1.5-1.7c-0.8,0-1.6,0.5-2.3,1l-0.7,0.4V72l1.2,0.2   L58.4,73L56.3,73z"/>
	<path class="st0" d="M75.8,70.1c0,0.9,0.2,1.3,0.4,1.6h1.3l0.1,0.8l-3,0.6l-0.7-1.7l-2.9,1.9c-2.8,0-4.7-2.1-4.7-5.2   c0-3.6,2.2-5.5,5.5-6c0.4,0,1.4,0.4,1.9,0.6v-4.2l-1.6,0L72,57.8l2.7-0.7l1.1-0.1V70.1z M73,70.7l0.7-0.5v-5.9   c-0.5-0.6-1.3-0.9-2.2-0.9c-1.8,0-2.9,1.6-2.9,4.3c0,2.5,1,4,2.3,4C71.5,71.6,72.2,71.3,73,70.7z"/>
	<path class="st0" d="M98.3,68.5l-0.6,3.2c-1.2,0.6-3.6,1.5-5.4,1.7c-4.2,0-8-2.8-8-8c0-5.2,3.5-7.8,8.5-8.4c2.3,0,4.4,1.1,5.3,1.7   v3h-1.2l-0.7-2.1c-0.6-0.6-1.9-1.5-3.7-1.5c-3.3,0-5.6,2.3-5.6,6.7c0,3.6,2.2,7.3,6.1,7.3c1.3,0,2.3-0.7,2.9-1.3l1.2-2.5H98.3z"/>
	<path class="st0" d="M110,67.5c0,3.3-2,5.3-5.5,5.8c-3,0-5-2.3-5-5.3c0-3.4,2-5.3,5.5-5.8C108,62.2,110,64.5,110,67.5z M105.1,72.3   c1.8,0,2.7-1.8,2.7-4.2c0-2.8-1.4-4.7-3.3-4.7c-1.8,0-2.7,1.8-2.7,4.3C101.8,70.1,103.1,72.3,105.1,72.3z"/>
	<path class="st0" d="M126.6,73l-2.1,0.1l-0.1-0.8l1.1-0.2v-6.4c0-1.2-0.5-1.7-1.3-1.7c-0.7,0-1.5,0.4-2.3,1l-0.7,0.5V72l1,0.2   l-0.1,0.8l-1.9-0.1l-2,0.1l-0.1-0.8l1-0.2v-6.4c0-1.2-0.5-1.7-1.3-1.7c-0.7,0-1.5,0.4-2.3,1l-0.7,0.5V72l1.1,0.2l-0.1,0.8l-2-0.1   l-2.6,0.1l-0.1-0.8l1.6-0.2v-8.2l-1.6,0.1l-0.1-0.8l2.7-0.7l1-0.1l0.1,1.9l3.1-2.1c2.2,0,3,0.6,3.2,2.2l3.2-2.2   c2.9,0,3.3,1.1,3.3,3.9V72l1.7,0.2l-0.1,0.8L126.6,73z"/>
	<path class="st0" d="M133.6,72.9v4.3l2.3,0.2l-0.1,0.8l-3.2-0.1l-2.6,0.1l-0.1-0.8l1.6-0.2V63.9l-1.6,0.1l-0.1-0.8l2.7-0.7l1-0.1   l0.1,1.9l2.9-2.1c2.9,0,4.6,2,4.6,5.2c0,3.8-2.3,5.5-5.6,6C134.7,73.4,134.1,73.2,133.6,72.9z M136.4,63.9c-0.6,0-1.3,0.4-2.1,1   l-0.7,0.5V71c0.5,0.8,1.4,1.2,2.4,1.2c1.6,0,2.7-1.6,2.7-4.2C138.8,65.5,137.8,63.9,136.4,63.9z"/>
	<path class="st0" d="M152.2,70.1c0,1,0.1,1.3,0.3,1.7h1.1l0.1,0.8l-2.9,0.6l-0.6-1.8l-3.2,2c-3,0-3.4-1.1-3.4-3.6v-5.8L142,64   l-0.1-0.9l2.7-0.6l1.1-0.1v7.4c0,1.2,0.5,1.7,1.6,1.7c0.7,0,1.6-0.6,2.4-1.1l0.4-0.3v-6.3l-1.3,0.1l-0.1-0.9l2.5-0.6l1.1-0.1V70.1z   "/>
	<path class="st0" d="M154.3,63.8v-0.4l0.8-0.8h1.5v-1.5l1.5-1.5h0.6v3.1h3.4v1h-3.4v6.6c0,0.6,0.2,1.3,1.2,1.3   c0.6,0,1.1-0.2,1.8-0.5l0.4,0.8l-2.6,1.5c-2.5,0-2.8-0.9-2.8-2.9v-6.7H154.3z"/>
	<path class="st0" d="M164.6,67.3c0,2.5,1.4,4.4,3.7,4.4c0.9,0,2-0.4,2.8-0.9l0.4,0.8c-1.1,0.7-2.5,1.4-3.9,1.8   c-2.7,0-5.1-1.9-5.1-5.4c0-3.3,2-5.1,5.1-5.7c3,0,4,1.9,4,4.2v0.9H164.6z M169.1,66.2c0-1.7-0.3-2.9-2.1-2.9   c-1.4,0-2.2,1.3-2.4,3.1L169.1,66.2z"/>
	<path class="st0" d="M176.2,65.4l2.5-3.1h1.8v2.2h-1.7c-0.5,0.1-1.5,0.8-2.1,1.6l-0.4,0.5V72l2.3,0.2l-0.1,0.8l-3.2-0.1l-2.5,0.1   l-0.1-0.8l1.6-0.2v-8.2l-1.6,0.1l-0.1-0.8l2.7-0.7l0.9-0.1L176.2,65.4z"/>
	<path class="st0" d="M199,57.4l0.2,4h-0.8l-1.3-2.9l-5.9-0.1v5.9l3.1-0.1l0.9-2.3h0.8l-0.2,2.8l0.2,3h-0.8l-0.9-2.3l-3.1-0.1V72   l6.1-0.1l1.5-3h0.9L199,73l-8.9-0.1l-3.1,0.1l-0.1-0.8l2-0.3V58.4l-2-0.3l0.1-0.8l3.1,0.1L199,57.4z"/>
	<path class="st0" d="M203.5,73l-2.6,0.1l-0.1-0.8l1.6-0.2v-8.2l-1.6,0.1l-0.1-0.8l2.7-0.7l1-0.1l0.1,1.9l3.3-2.2   c2.9,0,3.3,1,3.3,3.6V72l1.7,0.2l-0.1,0.8l-2.6-0.1L208,73l-0.1-0.8L209,72v-6.4c0-1.2-0.5-1.7-1.5-1.7c-0.8,0-1.6,0.5-2.3,1   l-0.7,0.4V72l1.2,0.2l-0.1,0.8L203.5,73z"/>
	<path class="st0" d="M221.7,63.5l1.2-1.4h1.3V64h-1.3l-0.7,0.4c0.1,0.3,0.2,0.7,0.2,1.1c0,1.9-1.3,3.2-4.4,4c-0.3,0-0.6,0-0.9,0   l-1.2,1.4c0,0.5,0.3,0.8,0.9,0.8h4.1c2,0,2.9,0.9,2.9,2.3c0,1.8-2.3,3.6-5.7,4.6c-3.2,0-4.9-1-4.9-3.1V75l2.4-1.9   c-1.6-0.6-1.7-1.3-1.7-2.3v-0.1l2.2-1.5c-1.4-0.5-2.3-1.6-2.3-3c0-1.9,1.3-3.2,4.4-4C219.8,62.2,221,62.7,221.7,63.5z M216.5,73.4   c-1.1,1.3-1.2,1.7-1.2,2c0,1.1,1.2,1.9,3,1.9c1.8,0,3.4-1.2,3.4-2.7c0-0.8-0.6-1.1-2.1-1.1H216.5z M218,63.2   c-1.2,0-1.9,0.9-1.9,2.4c0,1.1,0.5,2.8,2.3,2.8c1.2,0,1.9-0.8,1.9-2.1C220.3,65.1,219.8,63.2,218,63.2z"/>
	<path class="st0" d="M228.2,73l-2.6,0.1l-0.1-0.8l1.6-0.2v-8.2l-1.6,0.1l-0.1-0.8l2.7-0.7l1.1-0.1V72l1.7,0.2l-0.1,0.8L228.2,73z    M227.1,57.6l1.6-0.1l0.6,0.1l0.1,1.3l-0.2,1.1l-1.6,0.1l-0.6-0.1l-0.1-1.3L227.1,57.6z"/>
	<path class="st0" d="M234.8,73l-2.6,0.1l-0.1-0.8l1.6-0.2v-8.2l-1.6,0.1l-0.1-0.8l2.7-0.7l1-0.1l0.1,1.9l3.3-2.2   c2.9,0,3.3,1,3.3,3.6V72l1.7,0.2L244,73l-2.6-0.1l-2.1,0.1l-0.1-0.8l1.1-0.2v-6.4c0-1.2-0.5-1.7-1.5-1.7c-0.8,0-1.6,0.5-2.3,1   l-0.7,0.4V72l1.2,0.2l-0.1,0.8L234.8,73z"/>
	<path class="st0" d="M247,67.3c0,2.5,1.4,4.4,3.7,4.4c0.9,0,2-0.4,2.8-0.9l0.4,0.8c-1.1,0.7-2.5,1.4-3.9,1.8   c-2.7,0-5.1-1.9-5.1-5.4c0-3.3,2-5.1,5.1-5.7c3,0,4,1.9,4,4.2v0.9H247z M251.5,66.2c0-1.7-0.3-2.9-2.1-2.9c-1.4,0-2.2,1.3-2.4,3.1   L251.5,66.2z"/>
	<path class="st0" d="M257.5,67.3c0,2.5,1.4,4.4,3.7,4.4c0.9,0,2-0.4,2.8-0.9l0.4,0.8c-1.1,0.7-2.5,1.4-3.9,1.8   c-2.7,0-5.1-1.9-5.1-5.4c0-3.3,2-5.1,5.1-5.7c3,0,4,1.9,4,4.2v0.9H257.5z M262,66.2c0-1.7-0.3-2.9-2.1-2.9c-1.4,0-2.2,1.3-2.4,3.1   L262,66.2z"/>
	<path class="st0" d="M269.2,65.4l2.5-3.1h1.8v2.2h-1.7c-0.5,0.1-1.5,0.8-2.1,1.6l-0.4,0.5V72l2.3,0.2l-0.1,0.8l-3.2-0.1l-2.5,0.1   l-0.1-0.8l1.6-0.2v-8.2l-1.6,0.1l-0.1-0.8l2.7-0.7l0.9-0.1L269.2,65.4z"/>
	<path class="st0" d="M277.5,73l-2.6,0.1l-0.1-0.8l1.6-0.2v-8.2l-1.6,0.1l-0.1-0.8l2.7-0.7l1.1-0.1V72l1.7,0.2L280,73L277.5,73z    M276.4,57.6l1.6-0.1l0.6,0.1l0.1,1.3l-0.2,1.1l-1.6,0.1l-0.6-0.1l-0.1-1.3L276.4,57.6z"/>
	<path class="st0" d="M284.1,73l-2.6,0.1l-0.1-0.8l1.6-0.2v-8.2l-1.6,0.1l-0.1-0.8l2.7-0.7l1-0.1l0.1,1.9l3.3-2.2   c2.9,0,3.3,1,3.3,3.6V72l1.7,0.2l-0.1,0.8l-2.6-0.1l-2.1,0.1l-0.1-0.8l1.1-0.2v-6.4c0-1.2-0.5-1.7-1.5-1.7c-0.8,0-1.6,0.5-2.3,1   l-0.7,0.4V72l1.2,0.2l-0.1,0.8L284.1,73z"/>
	<path class="st0" d="M302.2,63.5l1.2-1.4h1.3V64h-1.3l-0.7,0.4c0.1,0.3,0.2,0.7,0.2,1.1c0,1.9-1.3,3.2-4.4,4c-0.3,0-0.6,0-0.9,0   l-1.2,1.4c0,0.5,0.3,0.8,0.9,0.8h4.1c2,0,2.9,0.9,2.9,2.3c0,1.8-2.3,3.6-5.7,4.6c-3.2,0-4.9-1-4.9-3.1V75l2.4-1.9   c-1.6-0.6-1.7-1.3-1.7-2.3v-0.1l2.2-1.5c-1.4-0.5-2.3-1.6-2.3-3c0-1.9,1.3-3.2,4.4-4C300.3,62.2,301.5,62.7,302.2,63.5z M297,73.4   c-1.1,1.3-1.2,1.7-1.2,2c0,1.1,1.2,1.9,3,1.9s3.4-1.2,3.4-2.7c0-0.8-0.6-1.1-2.1-1.1H297z M298.5,63.2c-1.2,0-1.9,0.9-1.9,2.4   c0,1.1,0.5,2.8,2.3,2.8c1.2,0,1.9-0.8,1.9-2.1C300.8,65.1,300.3,63.2,298.5,63.2z"/>
	<path class="st0" d="M47.1,91.2c-2.6,0-4.2-1.8-4.2-4.6c0-2.3,1-4.9,4.2-6l1.3-0.4c1.5,0,2.6,0.6,3.2,1.1l-0.1,2.1h-0.8L50.4,82   c-0.4-0.4-1.3-0.8-2.7-1c-2,0.9-3.1,2.8-3.1,5.3c0,2.7,1.5,4,3.2,4.1c0.7-0.3,1.2-0.5,1.6-0.9l0.9-1.8h0.8l-0.6,2.5L47.1,91.2z"/>
	<path class="st0" d="M58.2,86.7c0,1.8-1,3.5-2.9,4.1l-0.9,0.3c-1.3,0-2.4-1-2.4-3c0-1.8,1-3.5,2.9-4.1l0.9-0.3   C57.1,83.7,58.2,84.7,58.2,86.7z M53.4,88c0,1.7,0.8,2.3,1.6,2.5c1.4-0.4,1.8-2.3,1.8-3.6c0-1.7-0.8-2.3-1.6-2.5   C53.8,84.8,53.4,86.7,53.4,88z"/>
	<path class="st0" d="M63.7,89.1l0.3,0.4c-0.4,0.4-1.2,0.9-1.9,1.3l-0.6,0.4c-1.3,0-2.5-1-2.5-2.9c0-1.8,1.1-3.5,3-4.2l0.8-0.3   c0.4,0,1.2,0.3,1.6,0.5l-0.7,1.2c-0.5-0.4-1.2-0.7-1.7-0.9c-1.1,0.6-1.7,1.8-1.7,3.3c0,1.4,0.7,2.1,1.6,2.2   C62.5,89.8,63.4,89.4,63.7,89.1z"/>
	<path class="st0" d="M65.1,81.5l-0.2-0.4l2.6-0.8l0.4,0.3l-1.1,6.1l0.3-0.1l2.7-2.8h1.4l-0.3,1.4H70c-0.5,0.1-0.9,0.3-1.4,0.8   l-1,0.9L68,87l1.6,3.1l1.3-0.8l0.3,0.4L69,91.1l-0.6-0.4l-1.7-3.7l-0.7,3.8h-1.3l1.7-9.8L65.1,81.5z"/>
	<path class="st0" d="M74.4,85.3L74,86.9l2-3.1h1.2l-0.3,1.4h-0.7c-0.4,0.2-1,0.8-1.4,1.3l-0.6,0.7l-0.7,3.6h-1.3l1.1-6.2L72,85.2   l-0.2-0.4l2.4-1.1l0.4,0.4L74.4,85.3z"/>
	<path class="st0" d="M81.7,89.1l0.3,0.4c-0.4,0.3-1.2,0.9-1.9,1.3l-0.6,0.3C78,91.1,77,90,77,88.4c0-1.9,1.1-3.7,3-4.4l0.8-0.3   c0.9,0.2,1.6,0.6,1.6,1.6c0,0.3-0.1,0.8-0.3,1.3l-3.8,1.2c0,0.1,0,0.3,0,0.4c0,1.3,0.8,1.9,1.5,1.9C80.5,89.8,81.2,89.4,81.7,89.1z    M78.5,87.2l2.4-1c0.1-0.3,0.1-0.6,0.1-0.8c0-0.7-0.4-0.9-0.8-1C79.2,84.8,78.7,86,78.5,87.2z"/>
	<path class="st0" d="M83.4,81.5l-0.2-0.5l2.6-0.8l0.4,0.3L84.5,90l1.2-0.8l0.3,0.4l-2.1,1.5l-0.8-0.5l1.7-9.5L83.4,81.5z"/>
	<path class="st0" d="M87.4,81.5l-0.2-0.5l2.6-0.8l0.4,0.3L88.5,90l1.2-0.8l0.3,0.4l-2.1,1.5l-0.8-0.5l1.7-9.5L87.4,81.5z"/>
	<path class="st0" d="M101.4,83.1h-0.8l-0.1-1.4c-0.4-0.4-1.2-0.8-2-0.8c-1.1,0.3-1.6,0.9-1.6,1.6c0,0.9,0.6,1.4,1.2,1.8l1.4,1   c0.7,0.5,1.4,1.2,1.4,2.6c0,1.2-0.8,2.2-2.1,2.6l-1.5,0.5c-1.4,0-2.5-0.4-3.2-0.9l0.4-2.1h1v1.2c0.4,0.5,1.4,1.1,2.3,1.1   c1.1-0.3,1.6-1,1.6-1.9c0-1-0.5-1.5-1.2-2l-1.5-1.2c-0.7-0.6-1.2-1.2-1.2-2.2c0-1.1,0.8-1.9,2.2-2.5l1.4-0.5c1.3,0,2.2,0.4,2.7,0.8   L101.4,83.1z"/>
	<path class="st0" d="M106.5,89.1l0.3,0.4c-0.4,0.4-1.2,0.9-1.9,1.3l-0.6,0.4c-1.3,0-2.5-1-2.5-2.9c0-1.8,1.1-3.5,3-4.2l0.8-0.3   c0.4,0,1.2,0.3,1.6,0.5l-0.7,1.2c-0.5-0.4-1.2-0.7-1.7-0.9c-1.1,0.6-1.7,1.8-1.7,3.3c0,1.4,0.7,2.1,1.6,2.2   C105.3,89.8,106.2,89.4,106.5,89.1z"/>
	<path class="st0" d="M108.9,90.9h-1.3l1.7-9.8l-1.4,0.4l-0.2-0.5l2.6-0.8l0.4,0.3l-0.7,4.3l-0.2,0.5l2.6-1.6c1.2,0,1.6,0.8,1.4,1.7   l-0.8,4.7l1.2-0.8l0.3,0.4l-2.1,1.5l-0.8-0.5l0.9-4.8c0.1-0.6,0-1-0.5-1c-0.4,0-1,0.3-1.4,0.6l-0.7,0.5L108.9,90.9z"/>
	<path class="st0" d="M121.3,86.7c0,1.8-1,3.5-2.9,4.1l-0.9,0.3c-1.3,0-2.4-1-2.4-3c0-1.8,1-3.5,2.9-4.1l0.9-0.3   C120.1,83.7,121.3,84.7,121.3,86.7z M116.5,88c0,1.7,0.8,2.3,1.6,2.5c1.4-0.4,1.8-2.3,1.8-3.6c0-1.7-0.8-2.3-1.6-2.5   C116.9,84.8,116.5,86.7,116.5,88z"/>
	<path class="st0" d="M128.3,86.7c0,1.8-1,3.5-2.9,4.1l-0.9,0.3c-1.3,0-2.4-1-2.4-3c0-1.8,1-3.5,2.9-4.1l0.9-0.3   C127.2,83.7,128.3,84.7,128.3,86.7z M123.5,88c0,1.7,0.8,2.3,1.6,2.5c1.4-0.4,1.8-2.3,1.8-3.6c0-1.7-0.8-2.3-1.6-2.5   C123.9,84.8,123.5,86.7,123.5,88z"/>
	<path class="st0" d="M129.2,81.5l-0.2-0.5l2.6-0.8l0.4,0.3l-1.7,9.4l1.2-0.8l0.3,0.4l-2.1,1.5l-0.8-0.5l1.7-9.5L129.2,81.5z"/>
	<path class="st0" d="M142.6,86.7c0,1.8-1,3.5-2.9,4.1l-0.9,0.3c-1.3,0-2.4-1-2.4-3c0-1.8,1-3.5,2.9-4.1l0.9-0.3   C141.4,83.7,142.6,84.7,142.6,86.7z M137.8,88c0,1.7,0.8,2.3,1.6,2.5c1.4-0.4,1.8-2.3,1.8-3.6c0-1.7-0.8-2.3-1.6-2.5   C138.2,84.8,137.8,86.7,137.8,88z"/>
	<path class="st0" d="M142.8,93.2c0.3-0.4,0.6-0.9,0.6-1.2l1.3-7.2h-1.4l0.1-0.3l0.6-0.5h1l0.1-0.8c0.1-0.8,0.4-1.4,1-1.8l1.9-1.2   h1.2l-0.2,1.2H147c-0.3,0.3-0.6,0.9-0.6,1.3l-0.2,1.4h1.7l-0.2,0.7h-1.7l-1.1,6.6c-0.1,0.7-0.4,1.4-1,1.8l-1.8,1.2h-1l0.3-1.2   H142.8z"/>
	<path class="st0" d="M160.1,80.5V83h-0.5l-0.7-1.8l-3.7,0l-0.6,4l2.1-0.1l0.9-1.6h0.4l-0.5,2l-0.1,1.9h-0.4l-0.4-1.6l-2.1-0.1   l-0.7,4.5l4,0l1.1-2h0.6l-0.6,2.8l-5.9,0l-2,0v-0.5l1.4-0.2l1.4-9.1l-1.3-0.2l0.1-0.5l2.1,0L160.1,80.5z"/>
	<path class="st0" d="M165.6,85.9c0.1-0.6,0-1-0.5-1c-0.4,0-1,0.3-1.4,0.6L163,86l-0.9,5h-1.3l1.1-6.2l-1.4,0.5l-0.2-0.4l2.4-1.1   l0.5,0.5l-0.1,0.7l-0.2,0.4l2.6-1.6c1.2,0,1.6,0.8,1.4,1.7l-0.8,4.7l1.2-0.8l0.3,0.4l-2.1,1.5l-0.8-0.5L165.6,85.9z"/>
	<path class="st0" d="M168,94.4l0.2-1.2h2.7c0.5-0.3,1-1.1,1.1-1.9l0.2-1.5l0.3-0.6l-2.1,2c-1-0.2-2-0.9-2-2.8   c0-1.8,0.8-3.4,2.6-4.2l1-0.4c0.6,0,1.7,0.3,2.5,0.7l-1.3,7.2c-0.1,0.6-0.7,1.2-1.6,1.8l-1.3,1H168z M170.8,90l1.7-1.4l0.7-3.6   c-0.4-0.3-1.2-0.5-1.9-0.5c-0.9,0.7-1.4,2.1-1.4,3.5C169.9,89.2,170.3,89.8,170.8,90z"/>
	<path class="st0" d="M175.6,85.2l-0.2-0.4l2.4-1.1l0.5,0.5l-1,5.9l1.2-0.8l0.3,0.4l-2.1,1.5l-0.8-0.5l1.1-5.9L175.6,85.2z    M177.7,80.7l0.4-0.1l0.8,0.1v0.7l-0.3,0.6l-0.4,0.1l-0.9-0.1l0.1-0.7L177.7,80.7z"/>
	<path class="st0" d="M184.8,85.9c0.1-0.6,0-1-0.5-1c-0.4,0-1,0.3-1.4,0.6l-0.7,0.5l-0.9,5H180l1.1-6.2l-1.4,0.5l-0.2-0.4l2.4-1.1   l0.5,0.5l-0.1,0.7l-0.2,0.4l2.5-1.6c1.2,0,1.6,0.8,1.4,1.7l-0.8,4.7l1.2-0.8l0.3,0.4l-2.1,1.5l-0.8-0.5L184.8,85.9z"/>
	<path class="st0" d="M192.2,89.1l0.3,0.4c-0.4,0.3-1.2,0.9-1.9,1.3l-0.6,0.3c-1.5,0-2.5-1.1-2.5-2.7c0-1.9,1.1-3.7,3-4.4l0.8-0.3   c0.9,0.2,1.6,0.6,1.6,1.6c0,0.3-0.1,0.8-0.3,1.3l-3.8,1.2c0,0.1,0,0.3,0,0.4c0,1.3,0.8,1.9,1.5,1.9C191,89.8,191.7,89.4,192.2,89.1   z M189,87.2l2.4-1c0.1-0.3,0.1-0.6,0.1-0.8c0-0.7-0.4-0.9-0.8-1C189.7,84.8,189.2,86,189,87.2z"/>
	<path class="st0" d="M198.5,89.1l0.3,0.4c-0.4,0.3-1.2,0.9-1.9,1.3l-0.6,0.3c-1.5,0-2.5-1.1-2.5-2.7c0-1.9,1.1-3.7,3-4.4l0.8-0.3   c0.9,0.2,1.6,0.6,1.6,1.6c0,0.3-0.1,0.8-0.3,1.3l-3.8,1.2c0,0.1,0,0.3,0,0.4c0,1.3,0.8,1.9,1.5,1.9C197.2,89.8,198,89.4,198.5,89.1   z M195.3,87.2l2.4-1c0.1-0.3,0.1-0.6,0.1-0.8c0-0.7-0.4-0.9-0.8-1C196,84.8,195.4,86,195.3,87.2z"/>
	<path class="st0" d="M202.5,85.3l-0.5,1.6l2-3.1h1.2l-0.3,1.4h-0.7c-0.4,0.2-1,0.8-1.4,1.3l-0.6,0.7l-0.7,3.6h-1.3l1.1-6.2   l-1.4,0.5l-0.2-0.4l2.4-1.1l0.4,0.4L202.5,85.3z"/>
	<path class="st0" d="M205.8,85.2l-0.2-0.4l2.4-1.1l0.5,0.5l-1,5.9l1.2-0.8l0.3,0.4l-2.1,1.5l-0.8-0.5l1.1-5.9L205.8,85.2z    M207.9,80.7l0.4-0.1l0.8,0.1v0.7l-0.3,0.6l-0.4,0.1l-0.9-0.1l0.1-0.7L207.9,80.7z"/>
	<path class="st0" d="M215,85.9c0.1-0.6,0-1-0.5-1c-0.4,0-1,0.3-1.4,0.6l-0.7,0.5l-0.9,5h-1.3l1.1-6.2l-1.4,0.5l-0.2-0.4l2.4-1.1   l0.5,0.5l-0.1,0.7l-0.2,0.4l2.6-1.6c1.2,0,1.6,0.8,1.4,1.7l-0.8,4.7l1.2-0.8l0.3,0.4l-2.1,1.5l-0.8-0.5L215,85.9z"/>
	<path class="st0" d="M217.5,94.4l0.2-1.2h2.7c0.5-0.3,1-1.1,1.1-1.9l0.2-1.5l0.3-0.6l-2.1,2c-1-0.2-2-0.9-2-2.8   c0-1.8,0.8-3.4,2.6-4.2l1-0.4c0.6,0,1.7,0.3,2.5,0.7l-1.3,7.2c-0.1,0.6-0.7,1.2-1.6,1.8l-1.3,1H217.5z M220.3,90l1.7-1.4l0.7-3.6   c-0.4-0.3-1.2-0.5-1.9-0.5c-0.9,0.7-1.4,2.1-1.4,3.5C219.3,89.2,219.8,89.8,220.3,90z"/>
</g>
<g>
	<g>
		<polygon class="st1" points="17.1,28.1 17.1,28.1 17.1,28.1 17.1,28.1 17.1,28.1   "/>
		<path class="st1" d="M21.2,24.8c-0.8-0.1-1.7-0.3-2.4-0.3c-0.4,0-0.7,0-1,0.1l-0.2-4.7v-0.8c0.3-0.1,0.7-0.2,1.3-0.2    c0.7,0,1.4,0.1,2.2,0.2c0.7,0.1,1.4,0.2,2.2,0.3l0.2,5.7C22.7,25,21.9,24.9,21.2,24.8L21.2,24.8z M13.1,24.8    c-0.7,0.1-1.5,0.2-2.3,0.3l0.2-5.7c0.7,0,1.5-0.1,2.2-0.3c0.8-0.1,1.6-0.2,2.2-0.2c0.5,0,0.9,0.1,1.3,0.2v0.8l-0.2,4.7    c-0.3-0.1-0.6-0.1-1-0.1C14.7,24.5,13.9,24.6,13.1,24.8L13.1,24.8z M25.1,21.4v-1.1h-0.7v-1.8H24c-0.9,0-1.9-0.1-2.8-0.3    c-0.8-0.1-1.6-0.2-2.4-0.2c-0.7,0-1.3,0.1-1.7,0.3c-0.5-0.2-1-0.3-1.7-0.3c-0.7,0-1.5,0.1-2.4,0.2c-0.9,0.1-1.9,0.3-2.8,0.3H9.8    v1.8H9.1v1.1h0.7v1.5H9.1v1.1h0.7v2h0.4c1,0,2-0.2,3-0.3c0.8-0.1,1.6-0.2,2.2-0.2c0.5,0,0.9,0.1,1.2,0.2v0h0.9v0    c0.3-0.2,0.7-0.2,1.2-0.2c0.7,0,1.4,0.1,2.2,0.2c1,0.1,2,0.3,3,0.3h0.4v-2h0.7v-1.1h-0.7v-1.5H25.1L25.1,21.4z"/>
		<path class="st1" d="M13.2,19.9c0,0-0.1,0-0.1,0c-0.4,0.1-0.9,0.1-1.3,0.2l0,0.7c0.5-0.1,0.9-0.1,1.4-0.2c0,0,0,0,0,0V19.9    L13.2,19.9z"/>
		<path class="st1" d="M13.7,19.8v0.7c0.8-0.1,1.5-0.2,2.1-0.1l0-0.7C15.2,19.7,14.5,19.7,13.7,19.8L13.7,19.8z"/>
		<path class="st1" d="M13.2,23.2c0,0-0.1,0-0.1,0c-0.5,0.1-0.9,0.1-1.4,0.2l0,0.7c0.5-0.1,1-0.1,1.5-0.2c0,0,0,0,0,0V23.2    L13.2,23.2z"/>
		<path class="st1" d="M13.7,23.1v0.7c0.7-0.1,1.4-0.2,2-0.1l0-0.7C15.1,23,14.4,23,13.7,23.1L13.7,23.1z"/>
		<path class="st1" d="M13.1,21.6v0.7c0,0,0.1,0,0.1,0c1-0.1,1.8-0.3,2.6-0.2l0-0.7C15,21.3,14,21.4,13.1,21.6L13.1,21.6z"/>
		<path class="st1" d="M12.6,21.7c-0.3,0-0.5,0.1-0.8,0.1l0,0.7c0.3,0,0.6-0.1,0.9-0.1V21.7L12.6,21.7z"/>
		<path class="st1" d="M20.2,19.8c-0.6-0.1-1.2-0.1-1.8-0.1l0,0.7c0.5,0,1.1,0,1.7,0.1V19.8L20.2,19.8z"/>
		<path class="st1" d="M22.5,20.1c-0.4,0-0.9-0.1-1.3-0.2c-0.2,0-0.3,0-0.5-0.1v0.7c0.1,0,0.2,0,0.4,0.1c0.5,0.1,0.9,0.1,1.4,0.2    L22.5,20.1L22.5,20.1z"/>
		<path class="st1" d="M20,21.4c-0.5-0.1-1.1-0.1-1.6-0.1l0,0.7c0.5,0,1,0,1.5,0.1V21.4L20,21.4z"/>
		<path class="st1" d="M22.5,21.8c-0.5-0.1-0.9-0.1-1.3-0.2c-0.2,0-0.4-0.1-0.6-0.1v0.7c0.2,0,0.3,0,0.5,0.1c0.5,0.1,1,0.1,1.5,0.2    L22.5,21.8L22.5,21.8z"/>
		<path class="st1" d="M21.1,23.9c0.5,0.1,1,0.1,1.5,0.2l0-0.7c-0.5-0.1-0.9-0.1-1.4-0.2c0,0,0,0-0.1,0V23.9L21.1,23.9z"/>
		<path class="st1" d="M20.6,23.1c-0.7-0.1-1.4-0.2-2-0.1l0,0.7c0.6,0,1.3,0,2,0.1V23.1L20.6,23.1z"/>
		<path class="st1" d="M16.2,34.7l0.9-2.3l0.9,2.3l2.5,0.2l-1.9,1.6l0.6,2.4l-2.1-1.3L15,38.9l0.6-2.4l-1.9-1.6L16.2,34.7L16.2,34.7    z M10.5,33.9L10.5,33.9l4.1,3L13,41.7c0,0,0,0,0,0c0,0,0,0,0,0l4.1-3l4.1,3c0,0,0,0,0,0c0,0,0,0,0,0l-1.6-4.8l4.1-2.9v0    c0,0,0,0,0,0c0,0,0,0,0,0v0h-5l-1.6-4.8h0c0,0,0,0,0,0s0,0,0,0h0l-1.5,4.8L10.5,33.9L10.5,33.9C10.5,33.8,10.5,33.8,10.5,33.9    C10.5,33.9,10.5,33.9,10.5,33.9L10.5,33.9z"/>
		<path class="st1" d="M27.2,39.9c-0.4,0.4-0.8,0.7-1.4,0.8c0.1-0.5,0.3-1,0.7-1.4c0.4-0.4,0.8-0.7,1.4-0.8    C27.8,39,27.6,39.5,27.2,39.9L27.2,39.9z M25.2,36.8c-0.1-0.5,0-1.1,0.3-1.6c0.4,0.4,0.6,0.9,0.7,1.4c0.1,0.5,0,1.1-0.3,1.6    C25.5,37.8,25.3,37.3,25.2,36.8L25.2,36.8z M26.3,32.7c-0.1-0.5,0-1.1,0.2-1.6c0.4,0.4,0.6,0.9,0.7,1.4c0.1,0.5,0,1.1-0.2,1.6    C26.7,33.7,26.4,33.2,26.3,32.7L26.3,32.7z M28.9,33.9c0,0.5-0.1,1.1-0.4,1.6c-0.3,0.5-0.7,0.8-1.2,1.1c0-0.5,0.1-1.1,0.4-1.6    C28,34.5,28.4,34.1,28.9,33.9L28.9,33.9z M24.9,44.1c-0.4,0.3-1,0.5-1.5,0.5c0.2-0.5,0.5-1,1-1.3c0.4-0.3,1-0.5,1.5-0.5    C25.7,43.3,25.4,43.8,24.9,44.1L24.9,44.1z M23.7,40.6c0-0.5,0.2-1.1,0.6-1.5c0.3,0.5,0.4,1,0.3,1.6c0,0.5-0.2,1.1-0.6,1.5    C23.8,41.7,23.6,41.1,23.7,40.6L23.7,40.6z M22.3,44.2c-0.2,0.5-0.5,1-0.9,1.3c-0.2-0.5-0.2-1.1,0-1.6c0.2-0.5,0.5-1,0.9-1.3    C22.4,43.2,22.4,43.7,22.3,44.2L22.3,44.2z M23.1,46.6c-0.3,0.5-0.7,0.8-1.2,1c-0.3,0.2-0.7,0.2-1.1,0.2l0,0c-0.2,0-0.3,0-0.5,0    c0.3-0.5,0.7-0.8,1.2-1C22,46.6,22.6,46.5,23.1,46.6L23.1,46.6z M18.4,46.8c0.3-0.5,0.7-0.9,1.1-1.1c0.1,0.5,0,1.1-0.3,1.6    c-0.3,0.5-0.7,0.9-1.1,1.1C18,47.8,18.1,47.3,18.4,46.8L18.4,46.8z M12.3,47.7c-0.5-0.2-0.9-0.6-1.2-1c0.5-0.1,1.1,0,1.6,0.2    c0.5,0.2,0.9,0.6,1.2,1C13.4,47.9,12.8,47.9,12.3,47.7L12.3,47.7z M12,44.2c-0.2-0.5-0.1-1.1,0-1.6c0.4,0.3,0.7,0.8,0.9,1.3    c0.2,0.5,0.1,1.1,0,1.6C12.4,45.2,12.1,44.8,12,44.2L12,44.2z M14.7,45.7c0.5,0.2,0.9,0.6,1.1,1.1c0.3,0.5,0.4,1,0.3,1.6    c-0.5-0.3-0.9-0.6-1.1-1.1C14.7,46.8,14.6,46.2,14.7,45.7L14.7,45.7z M9.3,44.1c-0.4-0.3-0.8-0.8-1-1.3c0.5,0,1.1,0.2,1.5,0.5    c0.4,0.3,0.8,0.8,1,1.3C10.2,44.6,9.7,44.4,9.3,44.1L9.3,44.1z M9.9,39.1c0.3,0.4,0.5,0.9,0.6,1.5c0,0.5-0.1,1.1-0.3,1.6    c-0.3-0.4-0.5-0.9-0.6-1.5C9.6,40.1,9.7,39.6,9.9,39.1L9.9,39.1z M7,39.9c-0.4-0.4-0.6-0.9-0.7-1.4c0.5,0.1,1,0.4,1.4,0.8    c0.4,0.4,0.6,0.9,0.7,1.4C7.8,40.6,7.4,40.3,7,39.9L7,39.9z M6.8,36.5c-0.5-0.2-0.9-0.6-1.2-1.1c-0.3-0.5-0.4-1-0.4-1.6    c0.5,0.2,0.9,0.6,1.2,1.1C6.7,35.4,6.9,36,6.8,36.5L6.8,36.5z M7,32.5c0.1-0.5,0.4-1,0.7-1.4c0.2,0.5,0.3,1,0.2,1.6    c-0.1,0.5-0.4,1-0.7,1.4C6.9,33.6,6.9,33,7,32.5L7,32.5z M8,36.7c0.1-0.5,0.3-1,0.7-1.4c0.2,0.5,0.3,1,0.3,1.6    c-0.1,0.5-0.3,1-0.7,1.4C8.1,37.7,8,37.2,8,36.7L8,36.7z M27.2,37.3c0.8-0.3,1.5-0.8,2-1.6c0.4-0.7,0.6-1.6,0.4-2.5l-0.1-0.4    L29.1,33c-0.4,0.1-0.8,0.3-1.2,0.6c0.1-0.4,0.1-0.8,0-1.3c-0.2-0.9-0.6-1.6-1.3-2.1L26.3,30l-0.2,0.3c-0.5,0.7-0.6,1.6-0.5,2.5    c0.2,0.8,0.6,1.6,1.3,2.1c-0.1,0.3-0.2,0.6-0.3,0.9c-0.2-0.6-0.6-1.1-1-1.5l-0.3-0.2l-0.2,0.3c-0.5,0.7-0.7,1.6-0.6,2.4    c0.1,0.9,0.5,1.6,1.2,2.2l0,0c-0.2,0.3-0.4,0.6-0.5,0.9c-0.1-0.6-0.3-1.2-0.7-1.7L24.4,38l-0.3,0.3c-0.6,0.6-1,1.4-1.1,2.3    c-0.1,0.9,0.2,1.7,0.7,2.4l0,0c-0.2,0.2-0.5,0.5-0.6,0.8c0-0.6-0.1-1.2-0.4-1.8l-0.2-0.3l-0.3,0.2c-0.7,0.4-1.3,1.1-1.5,2    c-0.2,0.8-0.2,1.7,0.2,2.5l0,0c-0.3,0.2-0.6,0.4-0.8,0.6c0.2-0.6,0.2-1.2,0-1.8l-0.1-0.4l-0.4,0.1c-0.8,0.3-1.5,0.9-1.9,1.6    c-0.4,0.7-0.5,1.6-0.3,2.4c-0.1,0.1-0.2,0.2-0.3,0.2C17,49,16.9,49,16.8,48.9c0.2-0.8,0.1-1.7-0.3-2.4c-0.4-0.8-1.1-1.3-1.9-1.6    l-0.4-0.1l-0.1,0.4c-0.2,0.6-0.1,1.2,0,1.8c-0.2-0.2-0.5-0.4-0.8-0.6l0,0c0.4-0.8,0.5-1.7,0.2-2.5c-0.2-0.8-0.8-1.5-1.5-2    l-0.3-0.2l-0.2,0.3c-0.3,0.6-0.4,1.2-0.4,1.8c-0.2-0.3-0.4-0.5-0.6-0.8l0,0c0.5-0.7,0.8-1.5,0.7-2.4c-0.1-0.9-0.5-1.7-1.1-2.3    L9.9,38l-0.2,0.3C9.2,38.8,9,39.4,8.9,40c-0.1-0.3-0.3-0.6-0.5-0.9l0,0c0.7-0.6,1.1-1.3,1.2-2.2c0.1-0.9-0.1-1.7-0.6-2.4l-0.2-0.3    l-0.3,0.2c-0.5,0.4-0.8,0.9-1,1.5c0-0.3-0.1-0.6-0.3-0.9c0.7-0.5,1.2-1.3,1.3-2.1c0.2-0.9,0-1.7-0.5-2.5L7.9,30l-0.3,0.2    c-0.7,0.5-1.2,1.3-1.3,2.1c-0.1,0.4-0.1,0.9,0,1.3c-0.3-0.3-0.7-0.5-1.2-0.6l-0.4-0.1l-0.1,0.4C4.5,34.1,4.6,35,5,35.8    c0.4,0.8,1.1,1.3,2,1.6l0.3,0.1c0,0.3,0.1,0.5,0.2,0.8c-0.5-0.3-1-0.5-1.6-0.5l-0.4,0l0,0.4c0,0.9,0.3,1.7,0.9,2.4    c0.6,0.6,1.4,1,2.3,1.1l0.3,0c0.1,0.3,0.2,0.5,0.4,0.7c-0.4-0.1-0.8-0.2-1.2-0.2c-0.1,0-0.3,0-0.4,0l-0.4,0l0.1,0.4    c0.2,0.9,0.6,1.6,1.4,2.1c0.6,0.4,1.3,0.6,2,0.6c0.1,0,0.3,0,0.4,0l0.3,0c0.1,0.2,0.3,0.5,0.5,0.7c-0.5-0.1-1.1,0-1.6,0.1    l-0.4,0.1l0.2,0.4c0.3,0.8,1,1.4,1.8,1.8c0.4,0.2,0.9,0.3,1.4,0.3c0.4,0,0.8-0.1,1.1-0.2l0.3-0.1c0.4,0.4,1,0.8,1.6,1.2    c-0.3,0.2-0.7,0.4-1.1,0.7l0.7,0.4c0.4-0.2,0.7-0.5,1-0.7c0.3,0.2,0.6,0.4,1,0.7l0.7-0.4c-0.4-0.3-0.7-0.5-1.1-0.7    c0.7-0.5,1.2-0.9,1.6-1.2l0.3,0.1c0.4,0.1,0.7,0.2,1.1,0.2l0,0c0.5,0,0.9-0.1,1.4-0.3c0.8-0.4,1.4-1,1.8-1.8l0.2-0.4L23.7,46    c-0.5-0.2-1.1-0.2-1.6-0.1c0.2-0.2,0.4-0.4,0.5-0.7l0.3,0c0.1,0,0.3,0,0.4,0c0,0,0,0,0,0c0.7,0,1.4-0.2,2-0.6    c0.7-0.5,1.2-1.3,1.4-2.1l0.1-0.4l-0.4,0c-0.1,0-0.3,0-0.4,0c-0.4,0-0.8,0.1-1.2,0.2c0.1-0.2,0.3-0.5,0.4-0.7l0.3,0    c0.9-0.1,1.7-0.5,2.3-1.1c0.6-0.6,0.9-1.5,0.9-2.4l0-0.4l-0.4,0c-0.6,0-1.1,0.2-1.6,0.5c0.1-0.3,0.2-0.5,0.2-0.8L27.2,37.3    L27.2,37.3z"/>
		<path class="st1" d="M27.3,44.9c-0.7,1.1-1.6,2.1-2.6,3c-3.1,2.9-6.6,4.4-7.6,4.9c-1-0.4-4.5-2-7.6-4.9c-1-1-1.8-2-2.6-3    c-3.5-5.2-4-11.2-4-15.8l0,0l14.2-0.8l14.2,0.8C31.3,33.7,30.8,39.7,27.3,44.9L27.3,44.9z M3.7,17c2.6-0.3,8.6-0.9,13.4-0.9    c4.9,0,10.8,0.6,13.4,0.9l0.7,10.4H17.1H3L3.7,17L3.7,17z M32.7,15.8l-0.6-0.1c-0.1,0-8.5-1.1-15-1.1c0,0,0,0,0,0c0,0,0,0,0,0    c-6.5,0-14.9,1-15,1.1l-0.6,0.1v11.6h0V29c0,4.9,0.5,11.2,4.3,16.7c0.8,1.1,1.7,2.2,2.7,3.2l0,0c0,0,0,0,0,0c2,2,4.7,3.8,8.6,6v0    c0,0,0,0,0,0c0,0,0,0,0,0v0c3.9-2.2,6.6-4,8.6-6c0,0,0,0,0,0v0c1.1-1,1.9-2.1,2.7-3.2c3.8-5.5,4.3-11.8,4.3-16.7v-0.2l0,0V15.8    L32.7,15.8z"/>
	</g>
	<g>
		<path class="st1" d="M55.1,27.4l-1.4,0l-0.1-0.5l0.7-0.1v-4.3c0-0.8-0.4-1.1-1-1.1c-0.4,0-1,0.3-1.6,0.7l-0.4,0.3v4.4l0.8,0.1    l-0.1,0.5l-1.4,0l-1.6,0l-0.1-0.5l0.9-0.1v-9.1l-0.5,0.1l-3,0v9l1.7,0.2l-0.1,0.5l-2.4,0l-2.5,0l-0.1-0.5l1.8-0.2v-9l-2.2,0    l-0.7,1.9h-0.6V17l4.3,0l3.7,0l1.6-0.2h0.5v4.8l2.2-1.4c1.9,0,2.2,0.7,2.2,2.6v4l1.1,0.1l-0.1,0.5L55.1,27.4z"/>
		<path class="st1" d="M59,23.6c0,1.7,0.9,2.9,2.5,2.9c0.6,0,1.3-0.3,1.9-0.6l0.2,0.6c-0.7,0.5-1.7,0.9-2.6,1.2    c-1.8,0-3.4-1.3-3.4-3.6c0-2.2,1.3-3.4,3.4-3.8c2,0,2.6,1.2,2.6,2.8v0.6H59z M62,22.9c0-1.1-0.2-1.9-1.4-1.9    c-0.9,0-1.5,0.8-1.6,2.1L62,22.9z"/>
		<path class="st1" d="M73.9,17.5l0.1-0.5l1.9,0l1.7,0l0.1,0.5l-1.3,0.2v6.1c0,1.9-0.8,3.2-3.8,3.9c-2.9,0-4-1.6-4-4v-6.1l-1.3-0.2    l0.1-0.5l2.1,0l2,0l0.1,0.5l-1.3,0.2V24c0,1.8,0.8,2.9,2.5,2.9c1.6,0,2.4-1,2.4-3v-6.2L73.9,17.5z"/>
		<path class="st1" d="M79.7,27.4l-1.7,0l-0.1-0.5l1-0.1v-5.4l-1,0.1l-0.1-0.5l1.8-0.5l0.6,0l0.1,1.3l2.2-1.4c1.9,0,2.2,0.6,2.2,2.4    v4.1l1.1,0.1l-0.1,0.5l-1.7,0l-1.4,0l-0.1-0.5l0.7-0.1v-4.3c0-0.8-0.3-1.1-1-1.1c-0.5,0-1,0.3-1.6,0.7l-0.4,0.3v4.4l0.8,0.1    l-0.1,0.5L79.7,27.4z"/>
		<path class="st1" d="M88.2,27.4l-1.7,0l-0.1-0.5l1-0.1v-5.4l-1,0.1l-0.1-0.5l1.8-0.5l0.7-0.1v6.4l1.1,0.1l-0.1,0.5L88.2,27.4z     M87.5,17.2l1.1-0.1l0.4,0.1L89,18l-0.2,0.7l-1.1,0.1l-0.4-0.1l-0.1-0.8L87.5,17.2z"/>
		<path class="st1" d="M94.2,26.5l1.8-5.4l-0.7-0.1l0.1-0.5l1.3,0l1.2,0l0.1,0.5l-1,0.1l-2.4,6.1l-1.1,0.4l-2.6-6.6L90,20.9l0.1-0.5    l1.7,0l1.6,0l0.1,0.5l-1,0.1l1.6,4.4L94.2,26.5z"/>
		<path class="st1" d="M99.5,23.6c0,1.7,0.9,2.9,2.5,2.9c0.6,0,1.3-0.3,1.9-0.6l0.2,0.6c-0.7,0.5-1.7,0.9-2.6,1.2    c-1.8,0-3.4-1.3-3.4-3.6c0-2.2,1.3-3.4,3.4-3.8c2,0,2.6,1.2,2.6,2.8v0.6H99.5z M102.5,22.9c0-1.1-0.2-1.9-1.4-1.9    c-0.9,0-1.5,0.8-1.6,2.1L102.5,22.9z"/>
		<path class="st1" d="M107.4,22.4l1.7-2.1h1.2v1.5h-1.1c-0.4,0.1-1,0.6-1.4,1.1l-0.3,0.4v3.5l1.6,0.1l-0.1,0.6l-2.2,0l-1.7,0    l-0.1-0.5l1-0.1v-5.4l-1,0.1l-0.1-0.5l1.8-0.5l0.6,0L107.4,22.4z"/>
		<path class="st1" d="M115,21.3c-0.1-0.1-0.6-0.3-1.1-0.3c-0.6,0-1.1,0.3-1.1,0.9c0,0.5,0.4,0.8,1,1.1l1.1,0.6    c1,0.5,1.4,1.1,1.4,1.9c0,1.3-1.1,1.8-2.8,2.2c-0.9,0-1.9-0.4-2.3-0.7l-0.3-1.7h1l0.5,1.2c0.3,0.2,0.7,0.4,1.2,0.4    c0.8,0,1.2-0.5,1.2-1.1c0-0.6-0.3-0.8-1.1-1.2l-1.2-0.6c-0.6-0.3-1.3-0.9-1.3-1.7c0-1,1-1.6,2.7-2c0.8,0,1.7,0.4,2.1,0.7v1.5h-0.8    L115,21.3z"/>
		<path class="st1" d="M119.1,27.4l-1.7,0l-0.1-0.5l1-0.1v-5.4l-1,0.1l-0.1-0.5l1.8-0.5l0.7-0.1v6.4l1.1,0.1l-0.1,0.5L119.1,27.4z     M118.3,17.2l1.1-0.1l0.4,0.1l0.1,0.8l-0.2,0.7l-1.1,0.1l-0.4-0.1l-0.1-0.8L118.3,17.2z"/>
		<path class="st1" d="M126.5,31v-1.5h1.3l1.5-2.3l-0.6,0.2l-2.5-6.3h-2.3v4.5c0,0.4,0.2,0.9,0.8,0.9c0.4,0,0.9-0.2,1.3-0.4l0.3,0.5    l-1.9,1c-1.7,0-1.9-0.6-1.9-1.9v-4.4H121V21l0.5-0.5h1v-1l1-1h0.4v1.9h4.7l0.1,0.5l-1,0.1l1.7,4.4l0.1,1l1.8-5.4l-0.7-0.1l0.1-0.5    l1.3,0l1.2,0l0.1,0.5l-1,0.1l-2.4,6.1l-1.7,3.8H126.5z"/>
		<path class="st1" d="M143.1,23.8c0,2.2-1.4,3.5-3.7,3.9c-2,0-3.3-1.5-3.3-3.6c0-2.2,1.4-3.5,3.7-3.9    C141.8,20.2,143.1,21.8,143.1,23.8z M139.8,26.9c1.2,0,1.8-1.2,1.8-2.8c0-1.9-0.9-3.2-2.2-3.2c-1.2,0-1.8,1.2-1.8,2.8    C137.6,25.5,138.5,26.9,139.8,26.9z"/>
		<path class="st1" d="M146.5,20.6h1.9v0.7h-1.9v5.5l1.7,0.1l-0.1,0.6l-2.3,0l-1.7,0l-0.1-0.5l1-0.1v-5.5h-1.3V21l0.4-0.5h0.9v-0.1    c0-0.9,0.3-1.5,0.8-2.1l1.3-1.4h1.9v1.2h-1.9l-0.3,0.4c-0.2,0.3-0.3,0.7-0.3,1.7V20.6z"/>
		<path class="st1" d="M159.7,27.5l-2.4,0l-2.5,0l-0.1-0.5l1.8-0.2v-9l-2.2,0l-0.7,1.9H153V17l4.3,0l4.3,0v2.6H161l-0.7-1.9l-2.2,0    v9l1.7,0.2L159.7,27.5z"/>
		<path class="st1" d="M162.4,23.6c0,1.7,0.9,2.9,2.5,2.9c0.6,0,1.3-0.3,1.9-0.6l0.2,0.6c-0.7,0.5-1.7,0.9-2.6,1.2    c-1.8,0-3.4-1.3-3.4-3.6c0-2.2,1.3-3.4,3.4-3.8c2,0,2.6,1.2,2.6,2.8v0.6H162.4z M165.4,22.9c0-1.1-0.2-1.9-1.4-1.9    c-0.9,0-1.5,0.8-1.6,2.1L165.4,22.9z"/>
		<path class="st1" d="M170.3,26.9l-0.1,0.5l-1.2,0l-1.5,0l-0.1-0.5l1-0.1l2.2-2.7l-2.2-3l-0.9-0.1l0.1-0.5l1.7,0l1.4,0l0.1,0.5    l-0.6,0.1l1.1,1.7l0.1,0.4l1.4-2l-0.7-0.1l0.1-0.5l1.2,0l1.5,0l0.1,0.5l-1.1,0.1l-2,2.4l2.3,3.3l0.9,0.1l-0.1,0.5l-1.7,0l-1.4,0    l-0.1-0.5l0.6-0.1l-1.3-1.9l-0.1-0.3l-1.6,2.3L170.3,26.9z"/>
		<path class="st1" d="M178.8,20.2c1.9,0,2.4,0.5,2.4,2.4v2.9c0,0.6,0.1,0.9,0.3,1.1h0.7l0.1,0.5l-1.9,0.4l-0.5-1.1l-1.8,1.3    c-1.3,0-2.2-0.7-2.2-1.9c0-0.5,0.2-0.9,0.5-1.4l3.4-1.1v-0.7c0-0.9-0.1-1.4-0.9-1.4c-0.4,0-0.9,0.1-1.2,0.3l-0.3,1.2h-1.3v-1.1    L178.8,20.2z M179.7,23.9l-2.2,0.9c-0.2,0.2-0.3,0.5-0.3,0.8c0,0.8,0.4,1,0.9,1c0.4,0,0.8-0.3,1-0.4l0.6-0.4V23.9z"/>
		<path class="st1" d="M186.8,21.3c-0.1-0.1-0.6-0.3-1.1-0.3c-0.6,0-1.1,0.3-1.1,0.9c0,0.5,0.4,0.8,1,1.1l1.1,0.6    c1,0.5,1.4,1.1,1.4,1.9c0,1.3-1.1,1.8-2.8,2.2c-0.9,0-1.9-0.4-2.3-0.7l-0.3-1.7h1l0.5,1.2c0.3,0.2,0.7,0.4,1.2,0.4    c0.8,0,1.2-0.5,1.2-1.1c0-0.6-0.3-0.8-1.1-1.2l-1.2-0.6c-0.6-0.3-1.3-0.9-1.3-1.7c0-1,1-1.6,2.7-2c0.8,0,1.7,0.4,2.1,0.7v1.5h-0.8    L186.8,21.3z"/>
		<path class="st1" d="M195.7,20.2c1.9,0,2.4,0.5,2.4,2.4v2.9c0,0.6,0.1,0.9,0.3,1.1h0.7l0.1,0.5l-1.9,0.4l-0.5-1.1l-1.8,1.3    c-1.3,0-2.2-0.7-2.2-1.9c0-0.5,0.2-0.9,0.5-1.4l3.4-1.1v-0.7c0-0.9-0.1-1.4-0.9-1.4c-0.4,0-0.9,0.1-1.2,0.3l-0.3,1.2H193v-1.1    L195.7,20.2z M196.6,23.9l-2.2,0.9c-0.2,0.2-0.3,0.5-0.3,0.8c0,0.8,0.4,1,0.9,1c0.4,0,0.8-0.3,1-0.4l0.6-0.4V23.9z"/>
		<path class="st1" d="M199,21.3V21l0.5-0.5h1v-1l1-1h0.4v2h2.3v0.7h-2.2v4.4c0,0.4,0.2,0.9,0.8,0.9c0.4,0,0.8-0.1,1.2-0.4l0.3,0.5    l-1.7,1c-1.7,0-1.9-0.6-1.9-1.9v-4.4H199z"/>
		<path class="st1" d="M210.4,24l-1,2.8l1.3,0.2l-0.1,0.5l-1.8,0l-1.6,0l-0.1-0.5l1.2-0.2l3.7-9.7l0.9-0.3l3.9,9.9l1.2,0.2l-0.1,0.5    l-2.1,0l-2,0l-0.1-0.5l1.3-0.2l-1-2.8H210.4z M212.4,19.3l-0.1-0.8l-1.6,4.7h3.2L212.4,19.3z"/>
		<path class="st1" d="M224.3,25.5c0,0.6,0.1,0.9,0.2,1.1h0.7l0.1,0.5l-1.9,0.4l-0.4-1.2l-2.2,1.4c-2,0-2.3-0.7-2.3-2.4v-3.9l-1,0.1    l-0.1-0.6l1.8-0.4l0.7-0.1v5c0,0.8,0.3,1.1,1.1,1.1c0.5,0,1.1-0.4,1.6-0.7l0.3-0.2v-4.2l-0.9,0.1l-0.1-0.6l1.6-0.4l0.7-0.1V25.5z"/>
		<path class="st1" d="M230,21.3c-0.1-0.1-0.6-0.3-1.1-0.3c-0.6,0-1.1,0.3-1.1,0.9c0,0.5,0.4,0.8,1,1.1l1.1,0.6    c1,0.5,1.4,1.1,1.4,1.9c0,1.3-1.1,1.8-2.8,2.2c-0.9,0-1.9-0.4-2.3-0.7l-0.3-1.7h1l0.5,1.2c0.3,0.2,0.7,0.4,1.2,0.4    c0.8,0,1.2-0.5,1.2-1.1c0-0.6-0.3-0.8-1.1-1.2l-1.2-0.6c-0.6-0.3-1.3-0.9-1.3-1.7c0-1,1-1.6,2.7-2c0.8,0,1.7,0.4,2.1,0.7v1.5h-0.8    L230,21.3z"/>
		<path class="st1" d="M231.8,21.3V21l0.5-0.5h1v-1l1-1h0.4v2h2.3v0.7h-2.2v4.4c0,0.4,0.2,0.9,0.8,0.9c0.4,0,0.8-0.1,1.2-0.4    l0.3,0.5l-1.7,1c-1.7,0-1.9-0.6-1.9-1.9v-4.4H231.8z"/>
		<path class="st1" d="M239.5,27.4l-1.7,0l-0.1-0.5l1-0.1v-5.4l-1,0.1l-0.1-0.5l1.8-0.5l0.7-0.1v6.4l1.1,0.1l-0.1,0.5L239.5,27.4z     M238.8,17.2l1.1-0.1l0.4,0.1l0.1,0.8l-0.2,0.7l-1.1,0.1l-0.4-0.1l-0.1-0.8L238.8,17.2z"/>
		<path class="st1" d="M243.8,27.4l-1.7,0l-0.1-0.5l1-0.1v-5.4l-1,0.1l-0.1-0.5l1.8-0.5l0.6,0l0.1,1.3l2.2-1.4    c1.9,0,2.2,0.6,2.2,2.4v4.1l1.1,0.1l-0.1,0.5l-1.7,0l-1.4,0l-0.1-0.5l0.7-0.1v-4.3c0-0.8-0.3-1.1-1-1.1c-0.5,0-1,0.3-1.6,0.7    l-0.4,0.3v4.4l0.8,0.1l-0.1,0.5L243.8,27.4z"/>
	</g>
</g>
</svg>